<svg id="Layer_1" enable-background="new 0 0 512 512" height="512" viewBox="0 0 512 512" width="512" xmlns="http://www.w3.org/2000/svg"><g><path d="m241 129.827v-94.673c-57.822 3.319-112.046 25.788-155.327 64.361l66.936 66.936c25.19-20.97 55.777-33.644 88.391-36.624z"/><path d="m131.389 187.657-66.935-66.935c-38.606 43.269-61.103 97.497-64.443 155.333h94.677c3-32.621 15.7-63.21 36.701-88.398z"/><path d="m417.312 276.055h94.677c-3.34-57.836-25.836-112.064-64.443-155.333l-66.935 66.935c21.001 25.187 33.701 55.777 36.701 88.398z"/><path d="m417.29 306.055c-4.961 54.497-34.878 87.749-46.755 99.625-5.868 5.868-5.868 15.382 0 21.25l45.512 45.515c2.934 2.934 6.78 4.401 10.625 4.401 3.846 0 7.69-1.467 10.624-4.401 44.924-44.919 71.119-103.534 74.704-166.39z"/><path d="m93.067 392.122c4.19-6.584 10.532-16.499 18.14-28.231-7.799-15.458-14.394-34.73-16.497-57.836h-94.71c3.585 62.856 29.78 121.471 74.703 166.391 2.934 2.934 6.779 4.401 10.624 4.401s7.691-1.468 10.625-4.401l15.584-15.585c-4.514-2.173-8.679-5.111-12.326-8.757-15.028-15.03-17.555-38.05-6.143-55.982z"/><path d="m271 35.154v94.673c32.614 2.98 63.201 15.653 88.391 36.624l66.936-66.936c-43.281-38.574-97.505-61.042-155.327-64.361z"/><path d="m222.672 257.986c-23.216 23.216-96.066 137.311-104.296 150.245-3.775 5.931-2.923 13.688 2.048 18.66 4.971 4.971 12.728 5.823 18.66 2.048 12.933-8.23 127.029-81.08 150.245-104.296 18.377-18.377 18.377-48.279 0-66.656s-48.28-18.378-66.657-.001z"/></g></svg>