<svg id="Layer_1" enable-background="new 0 0 512 512" height="512" viewBox="0 0 512 512" width="512" xmlns="http://www.w3.org/2000/svg"><g><path fill="#fff" d="m241 72.105v-36.951c-57.822 3.319-112.046 25.788-155.327 64.361l66.936 66.936c15.649-13.028 33.382-22.851 52.389-29.139 2.89-13.546 5.393-24.933 7.074-32.497 3.472-15.626 14.577-27.7 28.928-32.71z"/><path fill="#fff" d="m131.389 187.657-66.935-66.935c-38.606 43.269-61.103 97.497-64.443 155.333h94.677c3-32.621 15.7-63.21 36.701-88.398z"/><path fill="#fff" d="m417.312 276.055h94.677c-3.34-57.836-25.836-112.064-64.443-155.333l-66.935 66.935c21.001 25.187 33.701 55.777 36.701 88.398z"/><path fill="#fff" d="m417.29 306.055c-4.961 54.497-34.878 87.749-46.755 99.625-5.868 5.868-5.868 15.382 0 21.25l45.512 45.515c2.934 2.934 6.78 4.401 10.625 4.401 3.846 0 7.69-1.467 10.624-4.401 44.924-44.919 71.119-103.534 74.704-166.39z"/><path fill="#fff" d="m94.71 306.055h-94.71c3.585 62.856 29.78 121.471 74.703 166.391 2.934 2.934 6.779 4.401 10.624 4.401s7.691-1.468 10.625-4.401l45.512-45.515c5.867-5.868 5.867-15.382 0-21.25-11.877-11.877-41.794-45.129-46.754-99.626z"/><path fill="#fff" d="m271 35.154v36.952c14.351 5.01 25.456 17.084 28.928 32.711 1.681 7.564 4.184 18.95 7.074 32.496 19.007 6.289 36.74 16.111 52.389 29.139l66.936-66.936c-43.281-38.575-97.505-61.043-155.327-64.362z"/><path fill="#fff" d="m256 99.577c-7.03 0-13.118 4.883-14.643 11.746-3.326 14.965-32.491 147.155-32.491 179.987 0 25.989 21.144 47.133 47.133 47.133s47.133-21.144 47.133-47.133c0-32.832-29.165-165.022-32.491-179.987-1.523-6.863-7.611-11.746-14.641-11.746z"/></g></svg>