<svg height="512pt" viewBox="0 -7 512.00026 512" width="512pt" xmlns="http://www.w3.org/2000/svg"><path d="m499.972656 228.761719c10.988282-10.886719 14.804688-26.820313 9.960938-41.585938-4.789063-14.597656-17.125-25.046875-32.191406-27.273437l-123.191407-18.195313c-3.238281-.476562-6.054687-2.578125-7.53125-5.621093l-55.09375-113.464844c-6.777343-13.953125-20.542969-22.621094-35.925781-22.621094s-29.148438 8.667969-35.925781 22.621094l-55.09375 113.464844c-1.476563 3.039062-4.292969 5.144531-7.53125 5.621093l-123.191407 18.195313c-15.066406 2.226562-27.402343 12.675781-32.191406 27.273437-4.84375 14.761719-1.027344 30.699219 9.960938 41.585938l89.144531 88.320312c2.433594 2.414063 3.542969 5.910157 2.960937 9.355469l-21.042968 124.710938c-2.605469 15.425781 3.617187 30.648437 16.242187 39.726562 12.394531 8.917969 28.453125 9.992188 41.910157 2.800781l110.1875-58.882812c2.863281-1.527344 6.28125-1.527344 9.144531 0l110.183593 58.882812c5.921876 3.164063 12.347657 4.726563 18.742188 4.726563 8.140625 0 16.230469-2.535156 23.171875-7.527344 12.621094-9.078125 18.84375-24.300781 16.242187-39.726562l-21.046874-124.714844c-.582032-3.441406.527343-6.9375 2.960937-9.351563zm0 0" fill="#ffd74a"/><path d="m499.972656 228.761719c10.988282-10.886719 14.804688-26.820313 9.960938-41.585938-4.789063-14.597656-17.125-25.046875-32.191406-27.273437l-123.191407-18.195313c-3.238281-.476562-6.054687-2.578125-7.53125-5.621093l-55.09375-113.464844c-6.777343-13.953125-20.542969-22.621094-35.925781-22.621094v433.648438c1.570312 0 3.140625.382812 4.570312 1.144531l110.1875 58.878906c5.917969 3.164063 12.34375 4.730469 18.738282 4.730469 8.140625 0 16.230468-2.535156 23.171875-7.527344 12.621093-9.082031 18.84375-24.304688 16.242187-39.730469l-21.042968-124.710937c-.582032-3.441406.527343-6.9375 2.960937-9.351563zm0 0" fill="#fdbf00"/></svg>